<?xml version="1.0" standalone="no"?><!DOCTYPE svg PUBLIC "-//W3C//DTD SVG 1.1//EN" "http://www.w3.org/Graphics/SVG/1.1/DTD/svg11.dtd"><svg t="1748571847819" class="icon" viewBox="0 0 1024 1024" version="1.1" xmlns="http://www.w3.org/2000/svg" p-id="1631" xmlns:xlink="http://www.w3.org/1999/xlink" width="32" height="32"><path d="M512 1024c426.666667 0 512-85.333333 512-512S938.666667 0 512 0 0 85.333333 0 512s85.333333 512 512 512z" fill="#1296db" p-id="1632" data-spm-anchor-id="a313x.search_index.0.i1.364b3a81TVTh1j" class="selected"></path><path d="M275.797333 506.837333l269.397334-269.397333a128 128 0 0 1 181.034666 0l60.330667 60.330667a128 128 0 0 1 0 181.034666l-269.397333 269.397334A213.333333 213.333333 0 0 1 366.336 810.666667H298.666667a85.333333 85.333333 0 0 1-85.333334-85.333334v-67.669333a213.333333 213.333333 0 0 1 62.464-150.826667z" fill="#ffffff" p-id="1633" data-spm-anchor-id="a313x.search_index.0.i0.364b3a81TVTh1j" class=""></path><path d="M560.298667 282.709333a21.333333 21.333333 0 0 1 30.165333 0l150.826667 150.826667a21.333333 21.333333 0 1 1-30.165334 30.165333l-150.826666-150.826666a21.333333 21.333333 0 0 1 0-30.165334zM379.306667 524.032l120.661333-120.661333a21.333333 21.333333 0 1 1 30.165333 30.165333L409.429333 554.24a21.333333 21.333333 0 0 1-30.165333-30.208zM469.76 614.570667l120.704-120.704a21.333333 21.333333 0 1 1 30.165333 30.165333l-120.661333 120.704a21.333333 21.333333 0 0 1-30.208-30.165333z" fill="#1296db" p-id="1634" data-spm-anchor-id="a313x.search_index.0.i3.364b3a81TVTh1j" class="selected"></path><path d="M213.333333 780.501333l60.330667-60.330666a21.333333 21.333333 0 0 1 30.165333 30.165333L243.498667 810.666667A21.333333 21.333333 0 0 1 213.333333 780.501333z" fill="#FFFFFF" p-id="1635"></path><path d="M326.485333 622.122667l75.392 75.392a42.666667 42.666667 0 0 1-23.552 72.32c-49.066667 7.68-83.968 1.194667-104.661333-19.498667-20.693333-20.693333-27.178667-55.594667-19.498667-104.661333a42.666667 42.666667 0 0 1 72.32-23.552z" fill="#1296db" p-id="1636" data-spm-anchor-id="a313x.search_index.0.i2.364b3a81TVTh1j" class="selected"></path></svg>