<?xml version="1.0" standalone="no"?><!DOCTYPE svg PUBLIC "-//W3C//DTD SVG 1.1//EN" "http://www.w3.org/Graphics/SVG/1.1/DTD/svg11.dtd"><svg t="1748571660836" class="icon" viewBox="0 0 1024 1024" version="1.1" xmlns="http://www.w3.org/2000/svg" p-id="85764" xmlns:xlink="http://www.w3.org/1999/xlink" width="32" height="32"><path d="M894.791 798.913c-11.583-11.36-109.829-94.481-213.953-181.95l-109.034 28.65c98.882 113.827 203.05 233.264 216.146 246.063 0.053 0.045 0.099 0.089 0.188 0.134a64.404 64.404 0 0 0 5.661 6.314c27.926 27.416 73.158 27.416 100.993 0 27.969-27.405 27.969-71.841-0.001-99.211z" fill="#1296db" p-id="85765"></path><path d="M911.8 130.1c0.322-6.183-1.858-12.436-6.626-17.143-9.083-8.858-23.684-8.858-32.653 0-0.453 0.417-348.279 342.251-365.701 359.272-17.586-14.738-33.228-27.859-45.915-38.456 26.444-42.502 21.868-98.37-13.853-136.227L280.379 132.669c-9.041-8.866-23.685-8.866-32.681 0a22.434 22.434 0 0 0 0 32.116c0 0.035 0.086 0.035 0.086 0.069 0 0 98.778 97.336 98.648 97.38 8.754 8.902 8.71 23.067-0.2 31.821-8.996 8.841-23.562 8.867-32.594 0.087l-98.733-97.016-0.278 0.321c-0.035 0-0.035-0.078-0.087-0.113-9.024-8.876-23.675-8.876-32.663 0a22.375 22.375 0 0 0 0 32.142s0.079 0.044 0.079 0.079l98.491 97.215c8.911 8.866 8.911 23.161-0.088 31.994-8.944 8.788-23.396 8.822-32.454 0.191 0 0-99.177-96.956-99.177-97.008-9.041-8.866-23.692-8.866-32.716 0a22.394 22.394 0 0 0 0 32.107S248.617 423.907 284.051 458.01c35.449 34.122 95.443 39.376 138.719 13.288a39392.213 39392.213 0 0 0 38.933 44.951c-118.64 115.99-267.868 262.214-281.754 277.49-0.929 1.024-1.694 2.136-2.328 3.23-23.006 26.774-21.754 66.854 3.97 92.057 25.688 25.255 66.506 26.496 93.759 3.907 0.077-0.044 0.156-0.095 0.234-0.165 17.1-12.967 182.794-204.079 295.276-334.651 36.154 25.255 86.516 22.033 118.9-9.761 0.634-0.592 2.18-2.181 2.406-2.407 96.285-97.128 219.773-320.53 219.773-415.366 0.001-0.162-0.086-0.317-0.139-0.483z" fill="#1296db" p-id="85766"></path></svg>