<?xml version="1.0" standalone="no"?><!DOCTYPE svg PUBLIC "-//W3C//DTD SVG 1.1//EN" "http://www.w3.org/Graphics/SVG/1.1/DTD/svg11.dtd"><svg t="1748571203947" class="icon" viewBox="0 0 1024 1024" version="1.1" xmlns="http://www.w3.org/2000/svg" p-id="26842" xmlns:xlink="http://www.w3.org/1999/xlink" width="32" height="32"><path d="M667.2 238c-24.6 0-48.4 9.8-65.8 27.4-17.4 17.4-27.2 41.2-27.2 65.8 0 37.8 22.8 71.6 57.6 86 22.8 9.4 48.4 9.4 71.2 0 22.8-9.4 41-27.6 50.4-50.4 9.4-22.8 9.4-48.6 0-71.4-14.6-34.6-48.6-57.2-86.2-57.4z m0 0" fill="#1296DB" p-id="26843"></path><path d="M927 40h-830C43.4 40 0 83.4 0 137v748C0 938.6 43.4 982 97 982h830c53.6 0 97-43.4 97-97v-748c0-53.6-43.4-97-97-97z m19.4 686.4l-149-190.2c-18.6-31.2-55.8-31.2-80.6-6.2l-173.8 174-180-229.8c-18.6-24.8-49.6-24.8-74.4 0L77.6 728.8V175.8c0-37.4 25-62.2 62-62.2h744.6c31 0 62 31.2 62 62.2l0.2 550.6z m0 0" fill="#1296DB" p-id="26844"></path></svg>