<?xml version="1.0" standalone="no"?><!DOCTYPE svg PUBLIC "-//W3C//DTD SVG 1.1//EN" "http://www.w3.org/Graphics/SVG/1.1/DTD/svg11.dtd"><svg t="1748571971583" class="icon" viewBox="0 0 1024 1024" version="1.1" xmlns="http://www.w3.org/2000/svg" p-id="14396" xmlns:xlink="http://www.w3.org/1999/xlink" width="32" height="32"><path d="M 755.538 376.12 H 175.754 a 20.0294 20.0294 0 0 0 -20.009 20.009 v 188.078 c 0 82.0224 32.4352 167.096 88.9856 233.411 c 58.7008 68.8282 133.688 106.752 211.149 106.752 h 40.0179 c 77.4605 0 131.968 -37.9136 190.674 -106.752 c 56.5504 -66.3142 88.9805 -151.383 88.9805 -233.411 V 396.124 a 20.0294 20.0294 0 0 0 -20.0141 -20.0038 Z" fill="#1296db" p-id="14397"></path><path d="M 830.438 410.132 h -45.5885 v -14.0083 c 0 -33.0957 -26.9312 -60.0269 -60.032 -60.0269 H 124.554 c -33.1008 0 -60.0269 26.9312 -60.0269 60.0269 v 188.083 c 0 91.392 35.9219 185.923 98.5549 259.364 c 66.4269 77.9059 152.228 120.806 241.597 120.806 h 40.0179 c 89.3747 0 175.171 -42.9005 241.603 -120.806 c 42.8083 -50.2118 73.1392 -110.285 88.0486 -172.472 h 56.0896 c 71.9514 0 130.488 -58.537 130.488 -130.488 c 0.00512 -71.9411 -58.537 -130.478 -130.488 -130.478 Z m -174.587 407.475 c -58.7059 68.8333 -133.688 106.757 -211.154 106.757 h -40.0179 c -77.4605 0 -152.448 -37.9136 -211.149 -106.757 c -56.5504 -66.3091 -88.9856 -151.383 -88.9856 -233.4 V 396.129 a 20.0294 20.0294 0 0 1 20.009 -20.009 h 126.7 v 97.4182 H 177.367 a 20.009 20.009 0 0 0 -20.009 20.009 v 190.08 a 20.009 20.009 0 0 0 20.009 20.009 h 190.085 a 20.009 20.009 0 0 0 20.009 -20.009 V 493.548 a 20.009 20.009 0 0 0 -20.009 -20.009 h -76.288 V 376.12 h 433.654 a 20.0294 20.0294 0 0 1 20.009 20.009 v 188.078 c 0.00512 82.0224 -32.425 167.091 -88.9754 233.4 Z M 347.443 513.562 v 150.067 H 197.376 v -150.067 h 150.067 Z m 482.995 117.535 h -45.5885 V 450.15 h 45.5885 c 49.879 0 90.4704 40.5914 90.4704 90.4755 c 0 49.8842 -40.5862 90.4704 -90.4704 90.4704 Z M 245.985 162.268 c 0.768 0.6656 18.816 16.599 18.816 44.1907 c 0 14.4128 -3.5072 21.2992 -8.36096 30.8326 c -5.50912 10.8083 -12.3648 24.2637 -12.3648 46.9862 a 20.009 20.009 0 0 0 40.0179 0 c 0 -13.1174 3.35872 -19.7069 8.00256 -28.8256 c 5.66784 -11.1309 12.7232 -24.9754 12.7232 -48.9933 c 0 -46.8531 -31.785 -73.7434 -33.1418 -74.8698 c 0 0 -15.6621 -15.1296 -27.5968 -4.608 c -17.5053 15.4368 2.05824 35.415 2.05824 35.415 l -0.1536 -0.128 Z M 434.13 234.941 c 0 38.4 -29.993 54.0877 -31.0989 54.656 c 0 0 -19.2717 13.3734 -10.1325 29.0458 c 9.1392 15.6723 27.5507 6.97856 27.5507 6.97856 c 2.19136 -1.05984 53.6986 -26.7008 53.6986 -90.6803 c 0 -31.1296 -16.3328 -49.7101 -29.4502 -64.64 c -10.537 -11.991 -16.5018 -19.2666 -16.5018 -29.399 c 0 -31.9386 14.551 -37.5501 15.1706 -37.7702 c -0.52736 0.18944 -0.82944 0.23552 -0.82944 0.23552 s 22.9581 -9.78432 18.3398 -28.2675 c -4.61824 -18.4781 -28.1395 -10.537 -28.1395 -10.537 c -16.5478 4.17792 -44.5645 24.96 -44.5645 76.3392 c 0 25.7126 14.6688 42.409 26.455 55.8182 c 12.0934 13.7523 19.5021 22.953 19.5021 38.2208 Z M 551.788 162.401 c 0.18944 0.1536 18.6675 16.2509 18.6675 44.0576 c 0 14.4128 -3.51744 21.2992 -8.36608 30.8326 c -5.504 10.8083 -12.3597 24.2637 -12.3597 46.9862 a 20.0038 20.0038 0 1 0 40.0077 0 c 0 -13.1174 3.35872 -19.7069 8.00256 -28.8256 c 5.66272 -11.1309 12.713 -24.9754 12.713 -48.9933 c 0 -46.8531 -31.7901 -73.7434 -33.1469 -74.8698 a 19.9987 19.9987 0 1 0 -25.5181 30.8122 Z" fill="#1296db" p-id="14398"></path></svg>