<?xml version="1.0" standalone="no"?><!DOCTYPE svg PUBLIC "-//W3C//DTD SVG 1.1//EN" "http://www.w3.org/Graphics/SVG/1.1/DTD/svg11.dtd"><svg t="1748571557115" class="icon" viewBox="0 0 1024 1024" version="1.1" xmlns="http://www.w3.org/2000/svg" p-id="64145" xmlns:xlink="http://www.w3.org/1999/xlink" width="32" height="32"><path d="M512 912.695652c-221.295304 0-400.695652-179.400348-400.695652-400.695652s179.400348-400.695652 400.695652-400.695652 400.695652 179.400348 400.695652 400.695652-179.400348 400.695652-400.695652 400.695652z" fill="#0B77E3" fill-opacity=".2" p-id="64146"></path><path d="M187.881739 805.253565C169.73913 817.597217 178.465391 845.913043 200.425739 845.913043h634.323478C865.469217 845.913043 890.434783 821.025391 890.434783 790.361043V211.433739a33.28 33.28 0 0 0-13.234087-26.523826 22.338783 22.338783 0 0 0-28.326957 1.113044l-17.942261 15.949913-20.513391-18.253913A22.327652 22.327652 0 0 0 795.581217 178.086957h-4.37426c-5.476174 0-10.752 2.003478-14.83687 5.64313l-20.513391 18.253913-20.524522-18.253913A22.327652 22.327652 0 0 0 720.495304 178.086957h-4.36313c-5.476174 0-10.752 2.003478-14.848 5.64313l-20.513391 18.253913-20.513392-18.265043A22.327652 22.327652 0 0 0 645.420522 178.086957h-4.374261c-5.465043 0-10.752 2.003478-14.83687 5.64313l-20.513391 18.253913-20.513391-18.253913A22.327652 22.327652 0 0 0 570.323478 178.086957h-4.36313c-5.476174 0-10.752 2.003478-14.83687 5.64313l-20.524521 18.253913-20.491131-18.265043A22.327652 22.327652 0 0 0 495.259826 178.086957h-4.374261c-5.465043 0-10.752 2.003478-14.836869 5.64313l-20.513392 18.253913-20.513391-18.253913A22.327652 22.327652 0 0 0 420.173913 178.086957h-4.374261c-5.476174 0-10.752 2.003478-14.836869 5.64313l-20.513392 18.253913-20.524521-18.253913A22.327652 22.327652 0 0 0 345.09913 178.086957h-4.36313c-5.476174 0-10.752 2.003478-14.83687 5.64313l-20.524521 18.253913-18.921739-16.840348a22.338783 22.338783 0 0 0-25.666783-2.82713 33.257739 33.257739 0 0 0-17.196522 29.083826v555.965217l-55.718956 37.899131z" fill="#FFFFFF" p-id="64147"></path><path d="M601.043478 701.239652c0-6.15513-5.064348-11.152696-11.074782-11.152695h-256.111305a11.074783 11.074783 0 0 0-11.074782 11.108173V790.26087c0 33.469217-11.130435 33.391304-11.130435 33.391304v11.130435h289.391304V701.239652z" fill="#0B77E3" p-id="64148"></path><path d="M187.881739 805.253565C169.73913 817.597217 178.465391 845.913043 200.425739 845.913043h634.323478C865.469217 845.913043 890.434783 821.025391 890.434783 790.361043V211.433739a33.28 33.28 0 0 0-13.234087-26.523826 22.338783 22.338783 0 0 0-28.326957 1.113044l-17.942261 15.949913-20.513391-18.253913A22.327652 22.327652 0 0 0 795.581217 178.086957h-4.37426c-5.476174 0-10.752 2.003478-14.83687 5.64313l-20.513391 18.253913-20.524522-18.253913A22.327652 22.327652 0 0 0 720.495304 178.086957h-4.36313c-5.476174 0-10.752 2.003478-14.848 5.64313l-20.513391 18.253913-20.513392-18.265043A22.327652 22.327652 0 0 0 645.420522 178.086957h-4.374261c-5.465043 0-10.752 2.003478-14.83687 5.64313l-20.513391 18.253913-20.513391-18.253913A22.327652 22.327652 0 0 0 570.323478 178.086957h-4.36313c-5.476174 0-10.752 2.003478-14.83687 5.64313l-20.524521 18.253913-20.491131-18.265043A22.327652 22.327652 0 0 0 495.259826 178.086957h-4.374261c-5.465043 0-10.752 2.003478-14.836869 5.64313l-20.513392 18.253913-20.513391-18.253913A22.327652 22.327652 0 0 0 420.173913 178.086957h-4.374261c-5.476174 0-10.752 2.003478-14.836869 5.64313l-20.513392 18.253913-20.524521-18.253913A22.327652 22.327652 0 0 0 345.09913 178.086957h-4.36313c-5.476174 0-10.752 2.003478-14.83687 5.64313l-20.524521 18.253913-18.921739-16.840348a22.338783 22.338783 0 0 0-25.666783-2.82713 33.257739 33.257739 0 0 0-17.196522 29.083826v555.965217l-55.718956 37.899131z m108.655304-581.309217a13.57913 13.57913 0 0 0 17.664 0L340.736 200.347826h4.36313l26.523827 23.596522a13.57913 13.57913 0 0 0 17.664 0L415.810783 200.347826h4.37426l26.512696 23.596522a13.57913 13.57913 0 0 0 17.675131 0L490.885565 200.347826h4.374261l26.523826 23.596522a13.57913 13.57913 0 0 0 17.664 0L565.982609 200.347826h4.36313l26.523826 23.596522a13.57913 13.57913 0 0 0 17.664 0L641.046261 200.347826h4.374261l26.523826 23.596522a13.57913 13.57913 0 0 0 17.664 0L716.132174 200.347826h4.36313l26.523826 23.596522a13.57913 13.57913 0 0 0 17.664 0L791.206957 200.347826h4.37426l26.512696 23.596522a13.57913 13.57913 0 0 0 17.67513 0l23.941566-21.303652c2.693565 2.025739 4.418783 5.231304 4.418782 8.793043v578.927304A33.369043 33.369043 0 0 1 834.782609 823.652174H200.347826l65.547131-44.521739V211.389217a11.01913 11.01913 0 0 1 5.721043-9.627826l24.932174 22.171826z" fill="#005CB9" p-id="64149"></path><path d="M244.869565 779.01913A44.610783 44.610783 0 0 1 200.347826 823.652174a44.521739 44.521739 0 0 1-44.521739-44.633044V278.26087l25.833739 26.679652a10.707478 10.707478 0 0 0 15.582609-0.033392l24.342261-25.344L244.869565 278.26087v500.75826z" fill="#40A0FF" p-id="64150"></path><path d="M189.19513 822.249739A44.633043 44.633043 0 0 0 222.608696 779.052522V278.26087h22.260869v500.75826a44.610783 44.610783 0 0 1-55.674435 43.230609z" fill="#000000" opacity=".1" p-id="64151"></path><path d="M171.865043 262.822957C157.974261 248.386783 133.565217 258.226087 133.565217 278.26087v500.914087A66.749217 66.749217 0 0 0 200.347826 845.913043c36.841739 0 65.446957-29.885217 65.446957-66.738086v-474.713044s-0.890435-11.286261-4.886261-15.426783l-23.563131-24.486956a22.26087 22.26087 0 0 0-32.077913 0l-15.872 16.495304-17.530435-18.220521zM155.826087 278.26087l26.056348 27.080347a10.317913 10.317913 0 0 0 15.026087 0l24.397913-25.36626 23.56313 24.486956v474.713044a44.53287 44.53287 0 0 1-89.043478 0V278.26087z" fill="#005CB9" p-id="64152"></path><path d="M645.565217 467.478261m11.130435 0l144.695652 0q11.130435 0 11.130435 11.130435l0 144.695652q0 11.130435-11.130435 11.130435l-144.695652 0q-11.130435 0-11.130435-11.130435l0-144.695652q0-11.130435 11.130435-11.130435Z" fill="#0B77E3" p-id="64153"></path><path d="M612.173913 478.597565c0-6.144-5.064348-11.119304-11.074783-11.119304h-256.111304a11.063652 11.063652 0 0 0-11.074783 11.119304v11.152696c0 6.144 5.064348 11.119304 11.074783 11.119304h256.111304c6.121739 0 11.074783-4.930783 11.074783-11.119304v-11.152696z m0 77.913044c0-6.144-5.064348-11.119304-11.074783-11.119305h-256.111304a11.063652 11.063652 0 0 0-11.074783 11.119305v11.152695c0 6.144 5.064348 11.119304 11.074783 11.119305h256.111304c6.121739 0 11.074783-4.930783 11.074783-11.119305v-11.152695z m200.347826 144.695652c0-6.144-4.997565-11.119304-11.208348-11.119304H656.773565a11.130435 11.130435 0 0 0-11.208348 11.119304v11.152696c0 6.144 4.997565 11.119304 11.208348 11.119304h144.539826A11.130435 11.130435 0 0 0 812.521739 712.358957v-11.152696z m0 77.913043c0-6.144-4.997565-11.119304-11.208348-11.119304H656.773565a11.130435 11.130435 0 0 0-11.208348 11.119304v11.152696c0 6.144 4.997565 11.119304 11.208348 11.119304h144.539826A11.130435 11.130435 0 0 0 812.521739 790.272v-11.152696z" fill="#40A0FF" p-id="64154"></path><path d="M734.608696 333.913043a11.130435 11.130435 0 0 0-11.108174-11.130434H411.803826a11.130435 11.130435 0 1 0 0 22.260869h311.696696A11.097043 11.097043 0 0 0 734.608696 333.913043z m-55.652174 55.652174c0-6.144-5.064348-11.130435-11.041392-11.130434H467.389217A11.052522 11.052522 0 0 0 456.347826 389.565217c0 6.144 5.064348 11.130435 11.041391 11.130435h200.525913A11.052522 11.052522 0 0 0 678.956522 389.565217z" fill="#005CB9" p-id="64155"></path></svg>