<?xml version="1.0" standalone="no"?><!DOCTYPE svg PUBLIC "-//W3C//DTD SVG 1.1//EN" "http://www.w3.org/Graphics/SVG/1.1/DTD/svg11.dtd"><svg t="1748571776010" class="icon" viewBox="0 0 1260 1024" version="1.1" xmlns="http://www.w3.org/2000/svg" p-id="115432" xmlns:xlink="http://www.w3.org/1999/xlink" width="39.375" height="32"><path d="M260.576 359.638H57.068c-15.074 0-27.457-12.382-27.457-27.457s12.383-27.458 27.457-27.458h203.508c15.075 0 27.458 12.383 27.458 27.458s-12.383 27.457-27.458 27.457z m0 180.358H57.068c-15.074 0-27.457-12.383-27.457-27.458s12.383-27.457 27.457-27.457h203.508c15.075 0 27.458 12.383 27.458 27.457s-12.383 27.458-27.458 27.458z m0 180.896H57.068c-15.074 0-27.457-12.383-27.457-27.458s12.383-27.457 27.457-27.457h203.508c15.075 0 27.458 12.383 27.458 27.457s-12.383 27.458-27.458 27.458zM973.931 0H174.974C109.83 0 57.068 52.761 57.068 117.905v97.986c0 15.074 12.383 27.457 27.458 27.457s27.457-12.383 27.457-27.457v-98.524c0-34.456 27.996-62.99 62.99-62.99h798.958c34.456 0 62.99 27.995 62.99 62.99v788.728c0 34.456-27.996 62.99-62.99 62.99H174.974c-34.457 0-62.99-27.996-62.99-62.99v-90.448c0-15.075-12.384-27.458-27.458-27.458s-27.458 12.383-27.458 27.458v90.448c0 65.144 52.762 117.905 117.906 117.905H973.93c65.144 0 117.905-52.761 117.905-117.905V117.367C1091.836 52.761 1039.075 0 973.931 0z m-21.536 794.111c-16.151-118.982-89.91-216.967-188.433-258.96 51.685-33.38 85.603-91.525 85.603-157.746 0-103.908-84.526-188.433-188.434-188.433s-188.433 84.525-188.433 188.433c0 64.606 32.303 121.135 81.834 155.592-101.215 40.378-177.666 140.517-194.355 261.114-2.154 16.69 10.229 31.765 27.457 31.765 13.998 0 25.304-10.23 27.457-24.227C433.396 669.746 534.612 568.53 656.286 568.53s222.89 101.216 241.195 233.119c2.153 13.998 13.46 24.227 27.457 24.227 17.228 0 30.15-15.075 27.457-31.765zM528.69 377.405c0-73.22 59.76-132.98 132.98-132.98s132.98 59.76 132.98 132.98-59.76 132.98-132.98 132.98-132.98-59.222-132.98-132.98z" fill="#1296db" p-id="115433"></path></svg>