<?xml version="1.0" standalone="no"?><!DOCTYPE svg PUBLIC "-//W3C//DTD SVG 1.1//EN" "http://www.w3.org/Graphics/SVG/1.1/DTD/svg11.dtd"><svg t="1748571418433" class="icon" viewBox="0 0 1024 1024" version="1.1" xmlns="http://www.w3.org/2000/svg" p-id="43278" xmlns:xlink="http://www.w3.org/1999/xlink" width="32" height="32"><path d="M700.42889122 483.67495251h-77.14260619v-85.78906382h77.14260619a8.06920734 8.06920734 0 0 0 8.59732945-8.59732946v-17.09640253a8.06920734 8.06920734 0 0 0-8.59732945-8.59732945h-77.14260619V320.76784659a8.06920734 8.06920734 0 0 0-8.59732945-8.59732945h-17.09640253a8.06920734 8.06920734 0 0 0-8.59732946 8.59732945v162.90710592h-25.65688682a8.06920734 8.06920734 0 0 0-8.59732847 8.59732847v171.45530817a8.08148939 8.08148939 0 0 0 8.59732847 8.59732847h94.27585584a51.58397475 51.58397475 0 0 0 51.4488742-51.46115526V492.23543583a8.16746273 8.16746273 0 0 0-8.63417559-8.56048332z m-25.69373199 137.16424575a17.19465792 17.19465792 0 0 1-17.12096662 17.13324868h-63.43600725c-3.41436769 0-5.14611563-1.74402998-5.14611563-5.15839768v-109.73876582c0-3.40208564 1.73174794-5.14611563 5.14611563-5.14611563h75.41085825c3.40208564 0 5.14611563 1.74402998 5.14611562 5.14611563zM513.5475192 637.97244694c-6.89014561-1.74402998-17.13324867-6.82873538-32.58387759-17.13324868-32.58387759-25.69373198-30.85212966-51.4488742-30.85212966-51.4488742V389.32540537a8.06920734 8.06920734 0 0 0-8.59732945-8.59732945h-17.09640253a8.06920734 8.06920734 0 0 0-8.59732945 8.59732945l-1.74402999 180.06491869s0 34.31562553-24.01111223 53.11921191c-13.71888098 8.59732945-27.43776197 13.71888098-34.38931683 15.46291097a7.36913953 7.36913953 0 0 0-6.89014463 6.8901456v17.12096663c0 5.15839767 5.15839767 8.59732945 10.3045133 8.59732945 11.974851-1.74402998 30.85212966-5.15839767 42.90067195-13.71888098 27.42547992-17.19465792 32.58387759-34.38931683 32.5838776-34.38931683s5.14611563 15.46291097 34.32790758 32.58387759c15.46291097 10.3045133 30.83984761 13.71888098 41.1443609 13.71888099 5.15839767 0 10.31679534-3.41436769 10.31679535-8.59732945v-17.05955738c0.08597334-1.73174794-3.35295844-3.41436769-6.81645432-5.14611562z" fill="#1296db" p-id="43279"></path><path d="M511.45959683 3.30532523C237.65922645 3.30532523 14.96383691 222.03366187 8.54040317 494.28651305V518.50641712c6.42343275 272.24056912 229.1188223 490.96890577 502.91919366 490.96890577 277.84111556 0 503.06657527-225.22546069 503.06657526-503.06657625S789.30071141 3.30532523 511.45959683 3.30532523zM808.09201672 677.59385273a78.29710481 78.29710481 0 0 1-78.30938686 78.30938686H367.60171527l-121.06267622 66.03976969V305.71023825A78.29710481 78.29710481 0 0 1 324.84842591 227.42541548h404.97105009A78.28482277 78.28482277 0 0 1 808.09201672 305.71023825z" fill="#1296db" p-id="43280"></path><path d="M357.5059948 586.51129069h17.13324867a8.08148939 8.08148939 0 0 0 8.59732945-8.59732847V353.32716009a7.36913953 7.36913953 0 0 1 6.90242667-6.90242765h89.19114947a7.36913953 7.36913953 0 0 1 6.81645432 6.90242765V577.95080737a8.08148939 8.08148939 0 0 0 8.59732846 8.59732946h17.12096761a8.08148939 8.08148939 0 0 0 8.59732847-8.59732946V329.36517506a17.09640352 17.09640352 0 0 0-17.21922201-17.19465792h-102.83633818c-29.18179195 0-51.46115625 22.2793643-51.46115625 51.4488742V577.95080737a8.08148939 8.08148939 0 0 0 8.56048332 8.56048332z" fill="#1296db" p-id="43281"></path></svg>