<?xml version="1.0" standalone="no"?><!DOCTYPE svg PUBLIC "-//W3C//DTD SVG 1.1//EN" "http://www.w3.org/Graphics/SVG/1.1/DTD/svg11.dtd"><svg t="1748571388749" class="icon" viewBox="0 0 1228 1024" version="1.1" xmlns="http://www.w3.org/2000/svg" p-id="41366" xmlns:xlink="http://www.w3.org/1999/xlink" width="32" height="32"><path d="M1044.1728 0.9728H184.32A184.832 184.832 0 0 0 0 185.2416v614.1952a184.832 184.832 0 0 0 184.2688 184.32h859.904a184.832 184.832 0 0 0 184.32-184.32V185.2416a184.832 184.832 0 0 0-184.32-184.32z m-189.44 61.44l153.5488 153.5488h-128.0512l-153.6-153.6h128.1024z m-215.04 0l153.6 153.5488H634.368l-153.5488-153.6h158.9248z m-245.6576 0l153.6 153.5488H388.6592l-153.6-153.6h158.9248zM61.44 185.1904c0-56.7808 38.912-104.3456 91.4432-118.3232l148.992 148.992H61.44v-30.72z m1105.6128 614.1952c0 67.7376-55.1424 122.88-122.88 122.88H184.32a122.9824 122.9824 0 0 1-122.88-122.88V277.3504h1105.664v522.0864z m0-583.4752h-71.9872l-153.6-153.6h102.7072c67.7376 0 122.88 55.1424 122.88 122.88v30.72z" fill="#1296db" p-id="41367"></path><path d="M534.7328 732.5696l204.6976-106.3936a51.2 51.2 0 0 0 0-91.648l-185.5488-96.768a64.4608 64.4608 0 0 0-93.184 57.6v191.3856a51.1488 51.1488 0 0 0 74.0352 45.824z m-12.6464-240.2304l184.32 92.16-184.32 92.1088V492.3392z" fill="#1296db" p-id="41368"></path></svg>