<?xml version="1.0" standalone="no"?><!DOCTYPE svg PUBLIC "-//W3C//DTD SVG 1.1//EN" "http://www.w3.org/Graphics/SVG/1.1/DTD/svg11.dtd"><svg t="1748333369494" class="icon" viewBox="0 0 1024 1024" version="1.1" xmlns="http://www.w3.org/2000/svg" p-id="11531" xmlns:xlink="http://www.w3.org/1999/xlink" width="32" height="32"><path d="M771.2 502c-6 68.8-35.4 104.8-59 122.8s-52 26-76.6 21.6c-5.6-1-11.2-2.6-16.6-4.6-5.4-2.2-10.4-4.8-15.4-7.8-4.8-3.2-9.4-6.6-13.6-10.6-4.2-4-7.8-8.4-11.2-13-6.2 6-12.8 11.2-20 16-7.2 4.6-14.8 8.6-22.8 11.8-8 3.2-16.2 5.6-24.6 7.2-8.4 1.6-17 2.4-25.4 2.2-7.6 0-15.2-0.6-22.6-2.2-7.4-1.6-14.8-3.8-21.8-6.8s-13.6-6.8-19.8-11.2-11.8-9.4-17-15.2c-24-26.2-35.8-64-32.4-103.8 6.4-73.8 65.2-121 120-129.6 57.4-9 110.2 13.8 132.6 41l8.2 9.8-13.4 106.2c-2.6 30.2 7 49.6 26 53 5 0.8 17-0.2 30.4-10.4 14.2-10.8 32-33.8 36-81.2 5-56-9.2-103.8-40.6-138.2-32.6-35.6-82.4-54.6-144-54.6-114 0-214.8 93.8-224.8 208.8-4.8 55.2 12 107 47.2 145.4 34.6 37.6 83 58.6 136.4 58.6 40 0 64.6-4.4 104.4-18.6 1.8-0.6 3.6-1.2 5.6-1.4 2-0.2 3.8-0.4 5.8-0.2 2 0 3.8 0.4 5.8 0.8 1.8 0.4 3.6 1.2 5.4 2 1.8 0.8 3.4 1.8 5 3s3 2.4 4.2 3.8c1.4 1.4 2.4 3 3.4 4.6 1 1.6 1.8 3.4 2.4 5.2s1.2 3.6 1.4 5.6c0.2 2 0.4 3.8 0.2 5.8 0 2-0.4 3.8-0.8 5.8s-1.2 3.6-2 5.4c-0.8 1.8-1.8 3.4-3 5s-2.4 3-3.8 4.2c-1.4 1.4-3 2.4-4.6 3.4-1.6 1-3.4 1.8-5.2 2.4-46 16.4-77.4 22-124.2 22-70.2 0-134-27.6-180-77.6-46.2-50.8-68.4-118.4-62.2-190.4 6.2-70.4 39-136.4 92.4-185.8 53.4-49.6 121.4-77 191.4-77 78.4 0 143.2 25.4 187.4 73.6 42.2 46.2 62.2 111.2 55.8 183.2zM508 73.2C265.8 73.2 69.2 269.6 69.2 512S265.6 950.8 508 950.8 946.8 754.4 946.8 512 750.2 73.2 508 73.2z" p-id="11532" fill="#515151"></path><path d="M506 436.6c-31.2 5-66.6 33.4-70.4 76.4-2.2 23.4 4.2 44.8 17 58.8 2.4 2.6 5 5 8 7 2.8 2 6 3.8 9.2 5.2 3.2 1.4 6.6 2.4 10.2 3.2 3.4 0.6 7 1 10.6 1 42.8 0 73.2-31.6 77.6-80.2 0.2-1.4 0.4-3 0.8-4.4l6.8-53.6c-5.2-3-10.6-5.6-16.2-7.8s-11.4-3.8-17.4-4.8c-6-1.2-11.8-1.8-18-1.8-6.4-0.4-12.4 0-18.2 1z" p-id="11533" fill="#515151"></path></svg>