<svg t="1748437212215" class="icon" viewBox="0 0 1024 1024" version="1.1" xmlns="http://www.w3.org/2000/svg" p-id="18276" width="200" height="200"><path d="M543.06816 102.93248A81.92 81.92 0 0 1 573.44 166.58432V858.7264a81.92 81.92 0 0 1-143.7696 53.69856l-143.36-165.0688-2.17088-2.6624H122.88a81.92 81.92 0 0 1-81.92-81.92v-286.72a81.92 81.92 0 0 1 81.92-81.92h160.01024l1.59744-2.048 143.36-177.0496a81.92 81.92 0 0 1 115.22048-12.10368z m148.2752 582.53312a20.48 20.48 0 0 1 27.0336-1.69984l1.9456 1.69984 115.83488 115.85536a20.48 20.48 0 0 1-27.0336 30.65856l-1.92512-1.69984-115.85536-115.85536a20.48 20.48 0 0 1 0-28.95872zM860.16 491.58144a20.48 20.48 0 0 1 2.39616 40.81664l-2.39616 0.14336h-163.84a20.48 20.48 0 0 1-2.39616-40.83712l2.39616-0.12288h163.84zM836.15744 193.82272a20.48 20.48 0 0 1 0 28.9792l-115.83488 115.85536a20.48 20.48 0 0 1-28.9792-28.9792l115.85536-115.85536a20.48 20.48 0 0 1 28.95872 0z" fill="#515151" p-id="18277"></path></svg>