<svg t="1748944045668" class="icon" viewBox="0 0 1024 1024" version="1.1" xmlns="http://www.w3.org/2000/svg" p-id="14438" width="32" height="32" ><path d="M629.76 985.088c-7.168 0-14.1312-2.6624-19.6608-7.5776L322.7648 719.0528H156.672c-47.5136 0-118.3744-31.5392-118.3744-118.1696v-177.3568c0-47.5136 31.5392-118.1696 118.3744-118.1696h166.0928L609.8944 46.4896c8.6016-7.7824 21.0944-9.8304 31.744-4.9152 10.8544 4.7104 17.6128 15.36 17.6128 27.0336v886.9888c0 11.6736-6.7584 22.3232-17.408 27.0336-3.8912 1.6384-8.192 2.4576-12.0832 2.4576z m-473.088-620.9536c-56.32 0-59.1872 49.152-59.1872 59.1872v177.3568c0 56.32 49.3568 59.1872 59.1872 59.1872h177.3568c7.3728 0 14.336 2.6624 19.6608 7.5776L600.064 889.0368V134.9632L353.8944 356.5568c-5.5296 4.9152-12.4928 7.5776-19.8656 7.5776H156.672z m620.7488-29.4912c-7.5776 0-15.1552-2.8672-20.8896-8.6016-11.4688-11.4688-11.4688-30.3104 0-41.7792L874.9056 165.888c11.4688-11.4688 30.3104-11.4688 41.7792 0s11.4688 30.3104 0 41.7792l-118.3744 118.1696c-5.7344 5.9392-13.1072 8.8064-20.8896 8.8064z m177.5616 206.848h-177.3568c-16.1792 0-29.4912-13.312-29.4912-29.4912 0-16.384 13.312-29.4912 29.4912-29.4912h177.3568c16.384 0 29.4912 13.312 29.4912 29.4912 0 16.384-13.1072 29.4912-29.4912 29.4912z m-59.1872 325.4272c-7.5776 0-15.1552-2.8672-20.8896-8.6016l-118.1696-118.1696c-11.4688-11.4688-11.4688-30.3104 0-41.7792 11.4688-11.4688 30.3104-11.4688 41.7792 0l118.3744 118.1696c11.4688 11.4688 11.4688 30.3104 0 41.7792-5.9392 5.5296-13.5168 8.6016-21.0944 8.6016z" p-id="14439" fill="#2c2c2c"></path></svg>