<svg t="1781449245788" class="icon" viewBox="0 0 1024 1024" version="1.1" xmlns="http://www.w3.org/2000/svg" p-id="1302"
  width="200" height="200">
  <path
    d="M244.778667 283.648L117.162667 159.232h-5.632l-3.285334 0.085333c-30.293333 1.322667-53.034667 21.077333-53.034666 46.592v77.738667h189.568z m187.733333 0L304.853333 159.232H160.298667L288 283.648h144.554667zM512 276.992l-33.536-117.76H348.032l120.746667 117.76H512z m328.448 6.656l-127.616-124.416H568.32l127.616 124.416h144.512z m110.677333-80.469333c-1.621333-25.088-25.429333-43.946667-56.234666-43.946667H756.053333l127.616 124.416h67.584V205.909333l-0.085333-2.730666z m-420.096 80.469333l7.424-124.330667 114.346667 124.330667h-121.770667z m126.506667 559.786667h-119.04L454.4 665.6h84.053333l114.261334-230.4-96.128-120.448h394.581333v244.906667a204.8 204.8 0 0 0-293.674667 283.818666z m-203.093333 0L371.2 614.4h133.248l63.829333-140.8-37.290666-158.848H55.210667v482.048l0.085333 2.730667c1.621333 25.088 25.429333 43.946667 56.234667 43.946666h342.912z"
    fill="#aaaaaa" p-id="1303"></path>
  <path
    d="M815.36 870.314667a157.44 157.44 0 1 0 0-314.794667 157.44 157.44 0 0 0 0 314.794667z m-20.394667-150.570667v-81.621333c0-3.2 2.645333-5.802667 5.845334-5.802667h29.141333c3.2 0 5.845333 2.602667 5.845333 5.802667v81.621333a5.845333 5.845333 0 0 1-5.845333 5.845333h-29.141333a5.845333 5.845333 0 0 1-5.845334-5.845333z m11.52 74.026667a23.338667 23.338667 0 1 1 17.834667-43.093334 23.338667 23.338667 0 0 1-17.877333 43.093334z"
    fill="#aaaaaa" p-id="1304"></path>
  <path
    d="M179.2 413.610667v145.578666a34.133333 34.133333 0 0 0 49.408 30.506667l145.493333-72.746667a34.133333 34.133333 0 0 0 0-61.098666L228.650667 383.146667a34.133333 34.133333 0 0 0-49.408 30.506666z"
    fill="#FFFFFF" p-id="1305"></path>
</svg>